<svg width="1100" height="700" viewBox="0 0 1100 700" fill="none" xmlns="http://www.w3.org/2000/svg">
<g opacity="0.05" clip-path="url(#clip0_2196_185)">
<path d="M455.815 258.118C456.089 256.565 439.966 241.828 428.311 232.248C405.198 213.217 378.151 191.785 341.868 185.128C341.868 185.128 306.577 179.815 260.35 203.884C258.507 204.837 252.602 207.918 252.837 209.588C253.046 211.037 257.71 210.358 263.355 210.411C276.943 210.541 287.527 210.646 295.445 222.432C298.62 227.157 300.958 233.175 303.271 239.074C308.889 253.498 308.301 258.706 310.823 261.016C317.069 266.72 324.268 237.495 340.835 223.176C349.916 215.332 357.939 215.292 368.822 215.24C387.624 215.149 402.754 224.521 431.917 243.029C446.277 252.14 455.606 259.28 455.815 258.105L455.815 258.118Z" fill="black"/>
<path d="M163.885 770.919C162.644 769.875 175.121 760.085 177.578 744.357C179.459 732.348 174.612 722.585 172.992 719.322C161.703 696.558 134.774 690.697 130.698 689.875C133.076 692.237 151.629 711.32 147.252 738.457C143.946 758.963 129.652 771.062 125.759 774.143C129.561 774.156 134.709 774.783 139.256 777.798C145.88 782.183 144.652 787.235 148.859 789.232C158.802 793.957 181.315 773.229 193.936 757.684C199.698 750.583 204.284 743.456 204.598 743.639C204.938 743.835 199.907 752.149 194.773 759.641C189.089 767.93 182.491 776.336 173.175 786.53C154.569 806.866 143.672 818.522 125.654 826.262C117.318 829.839 110.054 831.47 109.831 830.948C109.583 830.374 118.377 828.207 124.4 820.898C129.639 814.541 132.514 804.608 128.411 800.131C126.517 798.068 123.642 797.69 122.087 797.546C113.307 796.685 68.3605 792.26 55.948 816.525C52.3418 823.573 50.8 834.381 56.1178 839.459C59.5019 842.696 65.1332 843.074 70.843 843.479C79.9499 844.105 85.7642 842.134 85.8818 842.526C86.1692 843.479 53.583 859.821 9.74715 863.188C-25.3346 865.877 -52.2241 859.077 -69.5233 854.547C-85.6988 850.305 -99.7969 844.98 -99.4963 843.988C-99.0913 842.656 -73.3255 851.637 -42.464 852.511C-15.7835 853.268 6.7028 847.747 22.8522 842.2C22.1728 841.547 14.6338 833.989 16.855 823.443C17.8088 818.927 20.7747 814.084 27.3468 809.516C20.2521 808.628 9.40744 806.775 -3.08351 802.415C-20.3696 796.385 -46.1093 787.274 -59.737 762.944C-69.7716 745.022 -68.9484 726.461 -68.4388 714.845C-68.4127 714.388 -68.0991 707.574 -67.2368 707.535C-65.5121 707.444 -68.9615 735.207 -56.8102 754.525C-41.9544 778.111 -7.85254 782.627 5.7098 784.415C10.2175 785.016 86.4306 794.362 107.271 753.259C116.103 735.859 115.75 708.866 99.7446 693.255C91.7222 685.437 82.2364 682.866 78.0031 681.769C60.1944 677.162 38.3352 681.312 25.2694 694.939C23.7015 696.584 17.9786 702.823 15.2087 712.534C13.8237 717.416 10.91 727.662 16.672 736.225C19.2199 740.023 22.4994 742.033 24.9166 743.521C32.9782 748.481 41.1705 748.782 45.1164 748.873C56.562 749.16 64.7935 745.466 64.9373 745.91C65.0941 746.354 56.9017 750.4 46.7104 752.75C37.8779 754.786 17.3123 759.511 -3.46242 748.599C-4.96499 747.816 -26.406 736.147 -32.952 712.325C-35.9049 701.609 -35.1863 690.789 -34.8074 690.749C-34.5591 690.723 -34.3501 695.187 -33.1872 700.226C-32.4425 703.41 -26.5498 727.114 -5.13485 736.329C-2.54781 737.465 1.72471 738.992 7.55207 739.645C4.1419 733.001 -4.78208 713.265 2.40414 690.997C13.3402 657.139 52.1458 646.475 59.4235 644.478C80.0152 638.813 97.5365 641.71 103.717 642.794C103.717 642.794 115.79 644.921 158.528 664.396C158.528 664.396 132.736 638.147 103.207 634.518C80.6816 631.751 64.3493 632.678 64.3493 632.678C57.5942 632.743 50.2382 633.03 50.1598 632.247C50.0683 631.36 59.1491 629.702 65.5644 628.553C82.0535 625.577 93.7213 624.39 93.7213 624.39C116.064 622.105 137.178 620.63 148.219 619.912C148.219 619.912 125.092 605.737 94.1394 604.549C63.1995 603.349 7.85259 620.408 -5.60523 633.866C-19.063 647.323 -31.5932 671.471 -31.5932 671.471C-31.5932 671.471 -32.9259 599.276 -79.3488 587.868C-125.785 576.46 -130.894 583.052 -130.894 583.052C-130.894 583.052 -68.6087 552.326 -45.0379 581.081C-21.4672 609.836 -17.5866 617.184 -17.5866 617.184C-17.5866 617.184 42.4117 559.74 99.026 576.421C147.997 590.857 182.621 618.464 194.877 643.59C201.972 658.131 204.35 673.546 204.35 673.546C205.186 678.95 207.459 696.597 201.305 718.421C199.123 726.148 194.864 740.702 182.752 755.151C174.272 765.267 164.904 771.793 163.859 770.906L163.885 770.919Z" fill="black"/>
<path d="M412.293 670.922C412.293 645.872 391.397 625.564 365.621 625.564C339.846 625.564 318.95 645.872 318.95 670.922C318.95 695.973 339.846 716.28 365.621 716.28C391.397 716.28 412.293 695.973 412.293 670.922Z" stroke="black" stroke-width="13" stroke-miterlimit="10"/>
<path d="M376.91 670.922C376.91 665.169 371.856 660.506 365.621 660.506C359.386 660.506 354.332 665.169 354.332 670.922C354.332 676.675 359.386 681.338 365.621 681.338C371.856 681.338 376.91 676.675 376.91 670.922Z" fill="black" stroke="black" stroke-width="13" stroke-miterlimit="10"/>
<path d="M312.104 674.016C312.091 671.953 312.065 669.891 312.051 667.829C310.51 668.795 308.955 669.76 307.413 670.726C308.981 671.823 310.536 672.919 312.104 674.016Z" stroke="black" stroke-width="13" stroke-miterlimit="10"/>
<path d="M418.787 550.068C419.479 548.188 396.653 545.225 375.395 528.739C355.679 513.468 353.261 498.953 320.767 432.75C307.361 405.444 296.033 383.998 281.569 360.556C267.066 337.061 254.876 320.419 235.63 307.392C229.75 303.411 199.568 282.958 186.345 297.524C182.804 301.427 183.732 304.246 178.663 317.86C176.663 323.251 168.51 345.141 155.876 359.42C145.24 371.429 134.226 374.875 121.539 378.856C111.282 382.067 78.539 389.402 51.6234 368.962C45.5739 364.367 42.5295 359.407 36.0097 350.166C21.2322 329.203 14.1375 309.115 8.85888 294.313C0.313815 270.388 -11.4062 237.547 -18.2658 220.239C-34.2061 179.946 -48.9705 142.641 -81.0472 120.217C-102.684 105.102 -137.688 92.9106 -152.256 110.754C-165.1 126.495 -164.525 168.655 -164.525 168.655L-223.948 43.8456C-223.948 43.8456 -141.059 275.439 -121.8 292.329C-139.752 237.156 -158.332 167.755 -141.725 150.799C-134.029 142.941 -121.225 148.907 -110.863 153.749C-95.4196 160.954 -80.9688 173.772 -49.7283 236.281C-35.7218 264.318 -22.7996 293.413 -15.5873 334.411C-11.4454 357.971 -11.6806 371.233 -16.5542 375.853C-21.8328 380.866 -31.2271 374.47 -42.8034 366.586C-52.0933 360.269 -60.8343 352.267 -70.7513 340.35C-84.3136 324.047 -92.0486 310.081 -92.4537 310.499C-92.8587 310.929 -85.1106 325.849 -74.6972 343.065C-55.9215 374.091 -32.0503 413.55 8.4277 446.651C29.1371 463.581 49.4022 474.949 59.8026 480.771C68.5959 485.692 80.3159 491.813 80.6557 491.148C80.9562 490.534 71.5357 484.987 61.1484 477.26C42.8693 463.646 30.7703 450.058 22.8393 441.065C13.2621 430.205 2.6526 416.565 -7.90459 399.727C-3.52753 394.349 0.836464 388.958 5.21352 383.581C17.8482 406.579 43.0391 446.09 80.4074 467.731C100.816 479.557 129.666 488.837 136.499 491.043C151.015 495.716 165.74 499.449 166.106 498.483C166.433 497.609 154.347 493.876 139.191 485.835C132.88 482.494 118.638 474.466 102.972 460.931C92.5195 451.898 79.4405 438.663 66.4401 419.776C66.4401 419.776 137.022 427.007 155.85 392.822C167.008 399.1 183.157 409.803 199.672 427.607C205.212 433.585 211.419 441.743 223.818 458.059C248.931 491.096 253.843 500.911 269 510.074C277.728 515.347 287.984 519.276 290.937 520.412C304.748 525.698 316.991 528.23 317.278 527.447C317.552 526.677 305.845 524.315 293.185 515.387C287.54 511.406 280.837 505.506 271.822 493.132C260.416 477.482 257.41 468.11 242.75 438.258C229.018 410.299 222.159 396.32 217.181 391.177C200.234 373.713 182.608 372.212 183.51 358.546C184.019 350.779 190.226 343.418 195.047 338.64C231.305 369.445 255.176 400.523 270.293 423.235C286.73 447.93 315.436 496.747 349.015 522.252C363.322 533.125 378.073 539.404 381.301 540.761C399.567 548.384 418.133 551.777 418.76 550.068L418.787 550.068Z" fill="#1D1D1B"/>
<path d="M980.395 422.686C980.395 399.676 961.705 381.022 938.65 381.022C915.594 381.022 896.904 399.676 896.904 422.686C896.904 445.697 915.594 464.351 938.65 464.351C961.705 464.351 980.395 445.697 980.395 422.686Z" stroke="#E52421" stroke-width="13" stroke-miterlimit="10"/>
<path d="M948.75 422.686C948.75 417.402 944.228 413.119 938.65 413.119C933.072 413.119 928.55 417.402 928.55 422.686C928.55 427.97 933.072 432.254 938.65 432.254C944.228 432.254 948.75 427.97 948.75 422.686Z" fill="#E52421" stroke="#E52421" stroke-width="13" stroke-miterlimit="10"/>
<path d="M890.79 425.519C890.777 423.626 890.751 421.734 890.738 419.841C889.353 420.728 887.968 421.616 886.596 422.504C887.994 423.509 889.392 424.514 890.79 425.519Z" stroke="#E52421" stroke-width="13" stroke-miterlimit="10"/>
<path d="M547.066 681.103C543.539 689.313 540.873 695.54 541.344 703.058C542.284 718.134 555.285 729.999 566.43 734.58C591.621 744.931 629.394 727.036 646.746 700.891C670.735 664.735 656.911 610.919 620.3 591.51C597.357 579.345 563.791 579.801 541.84 596.483C530.12 605.385 524.567 616.754 516.924 632.378C501.388 664.135 500.879 688.974 499.441 688.87C498.004 688.765 497.704 663.809 507.856 634.505C510.756 626.138 513.971 617.054 520.778 606.416C526.958 596.77 540.416 575.742 566.652 565.509C596.743 553.761 623.175 564.217 630.662 567.18C643.375 572.205 651.489 578.914 656.571 583.195C679.358 602.37 686.779 625.394 688.191 630.015C690.19 636.568 693.247 649.072 692.306 665.297C691.261 683.14 685.865 697.223 681.958 705.525C687.459 712.221 694.972 721.971 702.864 734.423C721.861 764.419 733.189 794.518 730.968 795.758C729.113 796.789 719.131 776.91 694.802 746.889C685.159 734.985 676.588 725.6 670.552 719.243C664.881 724.229 659.211 729.215 653.527 734.189C653.527 734.189 671.767 754.211 691.483 780.839C716.857 815.102 723.73 823.834 726.892 829.277C745.393 861.126 753.01 891.278 751.299 892.074C749.744 892.792 741.8 868.957 719.522 838.832C709.109 824.748 709.828 828.599 685.669 800.809C663.47 775.278 642.199 748.285 625.932 749.708C619.922 750.23 614.434 752.671 614.434 752.671C607.326 755.817 602.766 760.568 600.414 763.413C618.55 775.304 641.977 792.913 665.704 817.804C675.438 828.011 704.745 859.964 730.315 910.843C752.331 954.661 762.666 994.811 760.771 995.634C758.968 996.417 748.934 960.352 720.058 916.3C695.625 879.034 669.219 853.594 644.067 829.369C617.962 804.229 604.909 791.659 590.772 783.528C571.134 772.237 552.149 766.194 529.78 745.218C520.138 736.173 513.526 727.793 511.697 715.98C509.398 701.087 515.904 688.556 518.269 684.171C532.367 657.922 563.712 646.396 566.312 649.699C568.063 651.931 556.134 660.036 547.093 681.077L547.066 681.103Z" fill="#1D1D1B"/>
<path d="M503.518 235.159C502.839 236.098 518.988 244.557 532.707 260.807C545.42 275.87 545.76 285.424 562.759 335.273C569.775 355.831 575.851 372.212 584.004 390.734C592.183 409.294 599.343 423 611.938 436.548C615.78 440.686 635.535 461.949 646.471 456.924C649.398 455.579 648.993 453.582 653.971 446.756C655.931 444.054 663.914 433.063 674.393 428.038C683.213 423.809 691.47 424.905 700.995 426.185C708.691 427.216 732.967 432.267 750.371 452.59C754.278 457.159 756.002 461.074 759.791 468.606C768.402 485.692 771.577 500.024 773.942 510.596C777.783 527.682 783.049 551.125 786.315 563.681C793.906 592.906 800.923 619.965 821.854 642.99C835.978 658.509 860.006 676.143 872.21 669.5C882.976 663.639 886.635 637.742 886.635 637.742L917.352 731.187C917.352 731.187 880.049 565.757 867.807 549.846C875.398 588.73 882.075 636.476 868.486 641.998C862.188 644.556 853.539 637.181 846.549 631.216C836.122 622.327 826.963 610.293 810.5 563.068C803.118 541.884 796.637 520.373 795.396 493.262C794.69 477.677 796.141 469.663 800.087 468.253C804.372 466.739 810.513 473.37 818.091 481.554C824.167 488.12 829.681 495.533 835.678 505.701C843.87 519.603 848.09 530.371 848.417 530.241C848.757 530.097 844.615 518.741 838.774 505.205C828.257 480.81 814.877 449.784 788.928 417.805C775.653 401.437 762.156 388.606 755.232 382.027C749.378 376.467 741.525 369.314 741.225 369.627C740.951 369.914 747.196 376.036 753.925 383.776C765.763 397.403 773.171 409.216 778.005 417.009C783.846 426.42 790.17 437.828 796.141 451.18C792.469 453.191 788.798 455.201 785.139 457.211C778.267 439.498 763.946 408.067 739.121 383.972C725.572 370.815 705.699 356.744 700.995 353.416C690.987 346.341 680.743 339.776 680.403 340.259C680.09 340.703 688.426 346.498 698.565 355.805C702.785 359.681 712.271 368.727 722.227 381.544C728.878 390.094 737.018 401.985 744.557 417.283C744.557 417.283 694.436 392.313 677.568 407.689C670.147 400.601 659.537 389.376 649.372 373.7C645.962 368.44 642.277 361.652 634.934 348.09C620.052 320.628 617.452 313.201 607.431 303.202C601.656 297.446 594.652 292.055 592.64 290.515C583.207 283.271 574.635 278.154 574.361 278.546C574.087 278.937 582.292 283.793 590.537 292.917C594.208 296.989 598.468 302.537 603.772 312.718C610.475 325.588 611.729 332.179 619.399 354.656C626.585 375.71 630.178 386.243 633.262 390.825C643.767 406.41 656.323 412.466 654.35 420.546C653.226 425.14 648.052 427.816 644.12 429.33C620.993 399.975 606.804 374.065 598.115 355.805C588.668 335.951 572.715 297.811 550.999 272.476C541.749 261.682 531.74 253.55 529.545 251.788C517.133 241.815 504.08 234.336 503.466 235.198L503.518 235.159Z" fill="#1D1D1B"/>
<path d="M986.157 161.424C972.582 168.903 947.051 182.961 921.73 181.199C908.886 180.311 899.27 175.56 893.325 172.636C878.626 165.379 870.368 156.046 869.662 156.855C868.97 157.652 875.999 168.016 887.589 176.904C904.849 190.14 924.042 193.821 932.731 195.387C932.731 195.387 933.267 195.491 958.34 198.95C955.231 207.382 950.906 222.197 952.16 238.983C954.564 270.988 975.47 285.685 980.539 289.001C936.52 291.938 916.007 282.318 906.521 275.844C894.344 267.529 879.645 255.651 879.645 255.651C867.938 246.188 860.752 239.466 860.307 239.975C859.654 240.719 873.621 255.912 880.938 263.248C935.619 318.043 1012.35 327.598 1016.14 328.028C1046.08 331.37 1069.61 328.054 1101.84 323.512C1144.83 317.456 1193.59 304.951 1232.93 312.952C1251.46 316.725 1261.76 323.786 1264 325.379C1280.53 337.048 1286.61 352.45 1288.83 350.831C1291.09 349.174 1287.43 331.239 1278.4 315.498C1263.55 289.588 1239.88 279.616 1230.72 276.34C1220.53 272.698 1205.32 269.108 1134 278.781C1072.38 287.134 1059.84 293.06 1037.43 285.372C1028.49 282.305 1007.08 274.551 994.82 250.3C991.083 242.899 977.273 212.342 991.24 180.807C999.08 163.108 1012.89 151.386 1010.89 148.645C1009.3 146.466 1000.33 153.618 986.144 161.437L986.157 161.424Z" fill="black"/>
<path d="M1101.08 216.767C1101.08 194.831 1082.66 177.048 1059.93 177.048C1037.2 177.048 1018.77 194.831 1018.77 216.767C1018.77 238.704 1037.2 256.487 1059.93 256.487C1082.66 256.487 1101.08 238.704 1101.08 216.767Z" stroke="black" stroke-width="11" stroke-miterlimit="10"/>
<path d="M1069.88 216.767C1069.88 211.728 1065.43 207.643 1059.93 207.643C1054.43 207.643 1049.97 211.728 1049.97 216.767C1049.97 221.806 1054.43 225.891 1059.93 225.891C1065.43 225.891 1069.88 221.806 1069.88 216.767Z" fill="black" stroke="black" stroke-width="11" stroke-miterlimit="10"/>
<path d="M1012.73 219.482C1012.72 217.681 1012.71 215.867 1012.68 214.065C1011.32 214.914 1009.95 215.762 1008.59 216.611C1009.98 217.563 1011.35 218.529 1012.73 219.482Z" stroke="black" stroke-width="11" stroke-miterlimit="10"/>
<path d="M684.754 184.553C684.754 159.503 663.859 139.195 638.083 139.195C612.307 139.195 591.412 159.503 591.412 184.553C591.412 209.604 612.307 229.911 638.083 229.911C663.859 229.911 684.754 209.604 684.754 184.553Z" stroke="black" stroke-width="11" stroke-miterlimit="10"/>
<path d="M649.373 184.553C649.373 178.801 644.318 174.137 638.084 174.137C631.849 174.137 626.795 178.801 626.795 184.553C626.795 190.306 631.849 194.969 638.084 194.969C644.318 194.969 649.373 190.306 649.373 184.553Z" fill="black" stroke="black" stroke-width="11" stroke-miterlimit="10"/>
<path d="M584.566 187.647C584.553 185.585 584.526 183.522 584.513 181.46C582.972 182.426 581.417 183.392 579.875 184.358C581.443 185.454 582.998 186.55 584.566 187.647Z" stroke="black" stroke-width="11" stroke-miterlimit="10"/>
<path d="M719.732 286.155C719.771 287.343 732.027 289.027 745.681 287.487C753.376 286.625 766.534 284.994 780.423 276.496C785.976 273.103 802.452 262.687 810.474 241.319C811.506 238.552 820.731 212.799 807.717 187.294C798.819 169.869 783.284 159.897 782.304 160.797C781.507 161.541 791.006 169.151 796.624 182.543C803.066 197.906 804.843 221.936 792.783 239.414C783.545 252.806 768.18 259.45 745.263 269.357C737.005 272.933 729.845 275.361 730.119 276.405C730.577 278.141 751.142 274.264 769.317 270.505C764.326 273.364 756.721 277.227 746.935 280.282C731.374 285.137 719.68 285.007 719.719 286.168L719.732 286.155Z" fill="#1D1D1B"/>
<path d="M186.384 -8.78299C187.612 -8.13036 180.204 4.16525 177.617 19.6718C174.01 41.3001 179.563 71.3866 199.959 89.0077C221.309 107.451 260.415 111.419 272.252 90.4304C283.306 70.7992 287.631 62.1323 276.891 53.9874C267.588 46.9389 250.903 51.8467 246.983 61.832C244.788 67.4185 246.983 73.488 247.427 74.7019C250.276 82.5466 256.822 84.8961 256.208 86.2014C255.554 87.6111 247.061 86.4624 240.293 80.7584C238.516 79.2573 231.84 73.214 230.246 62.1192C229.88 59.5217 228.939 52.3296 232.441 44.3936C234.832 38.9637 238.151 35.7788 238.895 35.074C241.757 32.3982 244.919 30.7405 255.201 28.0647C259.827 26.8639 265.981 25.4281 273.311 24.2012C271.037 21.2382 249.805 -7.3994 259.67 -41.8976C263.224 -54.3499 269.639 -63.3562 274.434 -68.8906C272.279 -65.8362 260.114 -48.0715 263.328 -26.143C267.549 2.57286 293.955 12.8453 299.05 13.0019C322.713 13.759 328.409 15.1948 337.987 1.34589C347.551 -12.503 353.77 -31.3119 348.884 -42.2109C347.668 -44.9259 345.996 -51.5958 340.339 -54.7937C334.093 -58.3179 326.959 -55.7987 322.164 -54.1019C310.496 -49.9772 304.603 -42.0282 303.597 -43.1246C302.5 -44.3124 308.236 -55.1069 317.682 -63.7217C330.108 -75.0644 343.553 -77.7273 349.093 -78.4713C353.914 -79.1108 364.001 -80.5074 374.074 -75.5735C387.075 -69.2169 393.098 -56.1772 395.529 -51.0867C412.645 -15.0744 445.231 35.9355 479.346 65.4345C492.791 77.0645 502.956 82.2986 513.801 84.6742C536.914 89.7386 556.447 80.3407 556.983 82.8598C557.48 85.1963 540.925 95.286 520.739 99.4498C493.745 105.01 472.369 97.4658 466.594 95.2599C432.845 82.3116 415.376 53.1128 411.534 46.6778C402.075 30.858 397.345 22.0866 397.345 22.0866C387.336 3.53876 382.11 -8.9396 377.655 -7.60822C375.669 -7.00779 374.689 -3.92735 374.179 -2.37408C367.346 18.6277 361.597 36.2618 352.895 43.5582C339.79 54.5225 312.887 48.0222 309.96 47.3174C306.864 46.5734 304.447 45.725 303.793 46.7823C301.559 50.4109 322.713 72.483 346.898 87.5719C359.807 95.6254 370.625 99.8414 380.66 103.744C393.373 108.704 402.062 112.007 414.409 112.777C426.952 113.56 437 111.328 437.013 111.654C437.026 111.993 426.116 114.199 413.559 115.152C407.68 115.596 391.57 116.719 373.591 113.547C346.963 108.861 326.306 96.5391 313.501 87.1673C310.81 93.8241 305.975 103.705 297.548 113.534C286.69 126.195 275.153 132.564 268.529 135.606C276.825 138.086 288.467 140.409 302.487 139.326C315.618 138.308 326.123 134.666 326.436 136.023C326.802 137.629 312.456 144.416 305.048 147.366C273.833 159.779 208.047 166.945 177.995 120.347C160.357 93.0018 162.565 58.8299 163.048 52.7474C164.329 36.5751 168.849 23.7704 170.509 19.3717C176.388 3.76065 185.09 -9.46173 186.384 -8.78299Z" fill="black"/>
<path d="M529.728 418.261C529.728 382.434 500.281 353.39 463.955 353.39C427.629 353.39 398.182 382.434 398.182 418.261C398.182 454.089 427.629 483.133 463.955 483.133C500.281 483.133 529.728 454.089 529.728 418.261Z" stroke="#E52421" stroke-width="21" stroke-miterlimit="10"/>
<path d="M479.869 418.262C479.869 410.036 472.744 403.368 463.955 403.368C455.166 403.368 448.041 410.036 448.041 418.262C448.041 426.487 455.166 433.155 463.955 433.155C472.744 433.155 479.869 426.487 479.869 418.262Z" fill="#E52421" stroke="#E52421" stroke-width="21" stroke-miterlimit="10"/>
<path d="M388.525 422.686C388.499 419.736 388.473 416.787 388.447 413.85C386.265 415.233 384.096 416.617 381.914 418C384.122 419.567 386.317 421.133 388.525 422.699L388.525 422.686Z" fill="white" stroke="#E52421" stroke-width="21" stroke-miterlimit="10"/>
<path d="M809.285 53.1258C819.293 56.5847 826.884 59.1953 835.717 58.0075C853.395 55.6188 866.134 39.2899 870.459 25.7804C880.232 -4.77591 855.525 -47.7584 823.056 -65.9799C778.149 -91.1716 716.06 -70.3264 696.709 -25.5297C684.584 2.5336 688.334 42.0441 710.102 66.4917C721.717 79.5444 735.646 85.131 754.8 92.806C793.71 108.404 823.03 106.916 823.043 108.613C823.056 110.31 793.684 112.79 758.171 103.313C748.032 100.611 737.017 97.5963 723.821 90.4695C711.853 84.0085 685.786 69.9376 671.205 39.9034C654.481 5.44435 664.254 -26.5869 667.024 -35.6455C671.727 -51.0476 678.861 -61.1765 683.408 -67.5332C703.817 -96.0011 730.236 -106.704 735.541 -108.753C743.067 -111.664 757.505 -116.337 776.724 -116.598C797.839 -116.885 814.955 -111.716 825.12 -107.827C832.476 -114.875 843.243 -124.56 857.158 -134.911C890.672 -159.842 925.061 -175.74 926.733 -173.234C928.131 -171.132 905.658 -157.675 872.628 -126.479C859.536 -114.105 849.292 -103.219 842.38 -95.5703C848.796 -89.305 855.211 -83.0528 861.626 -76.7875C861.626 -76.7875 883.472 -99.9822 912.949 -125.474C950.879 -158.275 960.509 -167.112 966.623 -171.302C1002.37 -195.802 1037.17 -207.327 1038.28 -205.383C1039.27 -203.62 1011.95 -192.225 978.592 -163.418C962.991 -149.948 967.46 -151.136 937.042 -120.318C909.095 -91.9939 879.317 -64.6486 882.558 -45.6047C883.76 -38.5693 887.144 -32.304 887.144 -32.304C891.534 -24.1983 897.584 -19.2252 901.151 -16.693C913.432 -39.0653 931.921 -68.1727 958.98 -98.233C970.086 -110.568 1004.91 -147.807 1062.41 -182.253C1111.93 -211.922 1158.25 -227.507 1159.4 -225.327C1160.49 -223.265 1118.96 -208.385 1069.83 -170.623C1028.25 -138.683 1000.82 -105.399 974.698 -73.7201C947.586 -40.8274 934.024 -24.394 925.806 -7.04703C914.386 17.0482 909.095 39.9295 886.53 68.0581C876.809 80.184 867.558 88.6813 853.813 91.84C836.475 95.8211 821.096 89.2034 815.7 86.8017C783.414 72.4177 766.821 36.4575 770.466 33.1291C772.922 30.884 783.623 44.25 809.285 53.0997L809.285 53.1258Z" fill="#1D1D1B"/>
<path d="M830.569 -14.2651C830.569 -30.4201 817.764 -43.5162 801.968 -43.5162C786.172 -43.5162 773.367 -30.42 773.367 -14.2651C773.367 1.88977 786.172 14.986 801.968 14.986C817.764 14.986 830.569 1.88977 830.569 -14.2651Z" stroke="#E52421" stroke-width="11" stroke-miterlimit="10"/>
<path d="M1009.86 574.933C1011.15 576.421 996.153 587.672 991.854 607.708C988.575 623.006 993.095 636.15 994.598 640.549C1005.13 671.183 1034.91 681.743 1039.43 683.257C1036.97 679.942 1017.91 653.262 1025.47 618.698C1031.18 592.593 1048.47 578.561 1053.15 574.998C1048.86 574.554 1043.12 573.184 1038.28 568.785C1031.23 562.402 1033.12 556.006 1028.56 552.952C1017.8 545.76 990.417 570.012 974.699 588.703C967.525 597.227 961.659 605.92 961.319 605.646C960.966 605.346 967.421 595.178 973.941 586.067C981.153 575.99 989.398 565.861 1000.88 553.748C1023.83 529.562 1037.23 515.713 1058.29 507.712C1068.04 504.005 1076.39 502.712 1076.59 503.404C1076.81 504.174 1066.7 506.002 1059.2 514.773C1052.68 522.409 1048.47 534.9 1052.66 541.139C1054.6 544.011 1057.81 544.807 1059.55 545.186C1069.36 547.274 1119.6 557.951 1135.93 527.995C1140.67 519.289 1143.46 505.506 1137.96 498.379C1134.45 493.837 1128.14 492.701 1121.75 491.565C1111.55 489.738 1104.81 491.657 1104.72 491.135C1104.48 489.868 1142.8 472.378 1192.55 472.887C1232.36 473.292 1262 485.052 1281.05 492.805C1298.88 500.063 1314.25 508.508 1313.81 509.748C1313.22 511.418 1285.05 496.982 1250.35 492.427C1220.35 488.498 1194.47 493.132 1175.73 498.509C1176.42 499.423 1184.2 510.009 1180.67 523.401C1179.15 529.131 1175.35 535.044 1167.5 540.226C1175.4 542.144 1187.45 545.747 1201.12 552.769C1220.01 562.467 1248.14 577.073 1261.15 609.992C1270.73 634.244 1268.01 658.118 1266.3 673.05C1266.24 673.624 1265.22 682.396 1264.24 682.356C1262.28 682.278 1268.86 646.814 1257.04 620.539C1242.57 588.39 1204.57 578.796 1189.45 574.985C1184.43 573.719 1099.43 553.226 1071.95 603.975C1060.31 625.473 1058.08 660.35 1074.63 682.265C1082.91 693.242 1093.36 697.615 1098.01 699.495C1117.65 707.418 1142.69 704.481 1158.73 688.321C1160.66 686.377 1167.72 678.95 1171.77 666.719C1173.81 660.571 1178.08 647.662 1172.41 635.967C1169.9 630.785 1166.4 627.822 1163.83 625.629C1155.22 618.333 1146.02 617.041 1141.58 616.479C1128.71 614.848 1119.08 618.698 1118.95 618.111C1118.81 617.524 1128.44 613.203 1140.15 611.298C1150.3 609.653 1173.95 605.829 1196.31 622.197C1197.93 623.384 1220.96 640.823 1226.05 672.293C1228.33 686.455 1226.48 700.343 1226.05 700.356C1225.77 700.356 1225.97 694.574 1225.13 687.93C1224.61 683.74 1220.24 652.479 1197 638.212C1194.2 636.502 1189.55 634.048 1183.05 632.56C1186.25 641.515 1194.39 667.985 1184.13 695.931C1168.53 738.431 1123.75 747.907 1115.35 749.682C1091.6 754.707 1072.13 749.043 1065.26 746.954C1065.26 746.954 1051.85 742.882 1005.56 713.004C1005.56 713.004 1032.08 749.747 1065.02 757.696C1090.14 763.753 1108.65 764.379 1108.65 764.379C1116.28 765.045 1124.59 765.489 1124.6 766.507C1124.63 767.656 1114.23 768.791 1106.89 769.574C1088.02 771.598 1074.74 771.846 1074.74 771.846C1049.33 772.315 1025.39 771.898 1012.88 771.598C1012.88 771.598 1037.57 792.456 1072.34 797.416C1107.11 802.376 1171.14 786.491 1187.61 770.606C1204.07 754.72 1220.55 724.921 1220.55 724.921C1220.55 724.921 1215.06 818.274 1266.29 838.14C1317.52 858.006 1323.92 850.057 1323.92 850.057C1323.92 850.057 1250.74 882.832 1226.95 843.1C1203.17 803.381 1199.5 793.448 1199.5 793.448C1199.5 793.448 1126.31 860.982 1064.1 833.167C1010.29 809.124 973.941 769.64 962.547 735.846C955.962 716.293 954.773 696.127 954.773 696.127C954.355 689.052 953.506 666.014 962.547 638.525C965.749 628.788 971.968 610.462 987.02 593.154C997.564 581.028 1008.75 573.654 1009.83 574.907L1009.86 574.933Z" fill="black"/>
<path d="M139.831 156.647C139.831 120.819 110.383 91.7748 74.0576 91.7748C37.7319 91.7748 8.28418 120.819 8.28418 156.647C8.28418 192.474 37.732 221.518 74.0576 221.518C110.383 221.518 139.831 192.474 139.831 156.647Z" stroke="#E52421" stroke-width="21" stroke-miterlimit="10"/>
<path d="M89.971 156.647C89.971 148.421 82.8459 141.754 74.0568 141.754C65.2676 141.754 58.1426 148.421 58.1426 156.647C58.1426 164.872 65.2676 171.54 74.0568 171.54C82.8459 171.54 89.971 164.872 89.971 156.647Z" fill="#E52421" stroke="#E52421" stroke-width="21" stroke-miterlimit="10"/>
<path d="M-1.35841 161.072C-1.38454 158.122 -1.41068 155.172 -1.43681 152.235C-3.6188 153.619 -5.78773 155.002 -7.96973 156.386C-5.7616 157.952 -3.56654 159.518 -1.35841 161.085L-1.35841 161.072Z" stroke="#E52421" stroke-width="21" stroke-miterlimit="10"/>
<path d="M627.566 677.644C627.566 661.49 614.76 648.393 598.964 648.393C583.168 648.393 570.363 661.49 570.363 677.644C570.363 693.799 583.168 706.896 598.964 706.896C614.76 706.896 627.566 693.799 627.566 677.644Z" stroke="#E52421" stroke-width="11" stroke-miterlimit="10"/>
<path d="M605.89 677.644C605.89 673.939 602.789 670.935 598.965 670.935C595.14 670.935 592.04 673.939 592.04 677.644C592.04 681.35 595.14 684.354 598.965 684.354C602.789 684.354 605.89 681.35 605.89 677.644Z" fill="black" stroke="#E52421" stroke-width="11" stroke-miterlimit="10"/>
<path d="M566.169 679.628C566.169 678.297 566.143 676.966 566.13 675.647C565.189 676.274 564.236 676.887 563.295 677.514C564.249 678.219 565.216 678.924 566.169 679.628Z" stroke="#E52421" stroke-width="11" stroke-miterlimit="10"/>
</g>
<defs>
<clipPath id="clip0_2196_185">
<rect width="777" height="1100" fill="white" transform="translate(0 738) rotate(-90)"/>
</clipPath>
</defs>
</svg>
