<?xml version="1.0" encoding="UTF-8"?>
<svg id="_Слой_2" data-name="Слой 2" xmlns="http://www.w3.org/2000/svg" viewBox="0 0 841.89 595.28">
  <defs>
    <style>
      .cls-1 {
        fill: #e52823;
      }
    </style>
  </defs>
  <path class="cls-1" d="M124.72,64.61c12.1,48.95,18.35,88.95,21.79,115.81,1.23,9.59,3.32,27.02,15.81,154.27,2.94,29.91,5.2,53.19,7.14,53.11,2.59-.1,3.01-40.87,3.11-50.55.22-21.12.48-55.33-3.85-101.71-2.55-27.31-6.89-61.03-14.6-99.43l49.19-24.91c-7.83,14.38-15.65,28.77-23.48,43.15-3.7,7.12-7.41,14.24-11.11,21.37,7.41-6.24,17.34-13.5,29.91-20.08,12.52-6.56,24.1-10.59,33.42-13.13,1.02,23.63-1.61,43.05-4.36,56.72-7.06,35.05-20.49,59.94-28.5,74.51-10.2,18.55-16.71,25.67-16.37,25.91.94.67,55.51-50.14,63.67-118.8,2.55-21.43,0-39.87-2.94-53.04-15.76,5.96-31.51,11.92-47.27,17.89l27.47-42.16c.71-.87,5.59-6.94,3.52-10.72-1.45-2.63-5.57-2.89-7.26-2.99-13.91-.86-56.43,26.34-66.52,32.87-2.13-14.05-4.26-28.11-6.39-42.16-.99-2.27-3.87-8.04-10.42-12.08-4.84-2.98-9.49-3.66-11.97-3.85Z"/>
  <path class="cls-1" d="M248.88,88.68c10.29,6.39,13.4,18.9,14.72,25.07,17.38,81.04-2.99,137.17-2.99,137.17-4.45,12.25-12.09,30.07-25.35,49.99,16.18-9.24,30.64-14.04,40.73-16.66,15.2-3.96,31.36-7.97,50.85-3.42,15.23,3.55,29.46,11.72,28.63,14.53-1.41,4.74-42.83-15.9-78.99.28-10.76,4.81-21.68,9.27-32.42,14.11-14.21,6.4-21.49,9.96-24.42,7.2-3.29-3.1.5-12.45,3.36-18.17,0,0,17.35-35.38,29.06-67.95,8.11-22.56,7.85-41.84,7.69-53.42-.29-21.23-.67-49.02-16.24-73.5-3.85-6.05-10.59-15-8.12-17.95,1.93-2.3,8.83-.18,13.49,2.71Z"/>
  <path class="cls-1" d="M302.1,279.14c-2.37.07-6.51-41.44-6.87-81.63,0,0-.32-35.22,9.4-93.59,0,0,2.33-13.97,11.97-33.33,6.6-13.26,9.73-14.51,11.54-14.33,3.27.32,5.5,5.61,8.55,16.47,7.28,25.98,7.69,37.61,7.69,37.61,1.02,28.55,2.45,68.35,6.84,98.71.91,6.32,7.02,28.57,19.23,73.07,8.11,29.55,11.68,41.15,20.69,43.71,14.76,4.19,32.94-19.08,36.41-23.64-.23,1.17-5.23,24.23-24.2,29.92-1.54.46-10.97,3.14-20.69-1.24-9.23-4.16-15.07-13.05-26.74-56.45-7.54-28.05-11.73-43.91-14.73-68.03-2.29-18.43-2.96-34.19-3.06-46.02-1.82-42.34-6.32-52.56-10.41-53.04-6.24-.74-16.25,20.6-17.95,40.6-.67,7.88.03,14.59.89,19.47,2.65-2.11,6-4.71,9.95-7.61,16.54-12.16,36.9-24.72,37.88-23.4.78,1.05-10.37,11.42-52.3,45.06.16,17.33-.02,40.59-1.4,68.2-.97,19.29-1.5,29.44-2.67,29.47Z"/>
  <path class="cls-1" d="M417.87,152.21c1.24.78,15.61-14.83,24.36-35.47,8.52-20.12,8.96-38.57,8.31-49.62-13.14-.2-31.08,1.14-51.04,7.75-9.08,3.01-16.99,6.57-23.7,10.14-5.26,15.05-10.37,34.62-12.2,57.8-2.02,25.65.85,44.67,3.85,64.53,3.34,22.13,7.32,34.08,15.29,58,5.78,17.35,10.03,26.7,19.32,30.46,10.67,4.31,21.32-1.44,21.79-1.71,8.45-4.73,12.18-13.51,16.24-29.49,8.44-33.26,10.54-67.25,8.12-67.52-.8-.09-4.1,13.04-10.68,39.31-7.36,29.39-9.86,40.89-18.38,43.59-6.34,2.01-12.75-1.9-14.53-2.99-8.03-4.91-10.91-13.56-17.95-46.58-2.1-9.86-3.82-18.36-5.13-24.99-2.45-15.8-4.09-37.03-1.28-61.75,2.18-19.22,6.49-35.57,10.86-48.44,4.42-2.92,10.36-6.22,17.77-8.82,10.49-3.69,19.82-4.53,26.31-4.59-1.49,10.86-2.98,21.72-4.47,32.58-1.1,4.94-2.93,12.1-5.98,20.49-4.15,11.41-7.58,16.9-6.89,17.33Z"/>
  <path class="cls-1" d="M477.37,171.88c7-10,16.81-25.34,25.97-45.31,15.78-34.41,20.98-63.71,23.08-63.25,1.78.39-1.53,21.68-3.02,31.27-4.16,26.72-8.67,40.2-10.21,44.63-5.74,16.48-10.42,22.93-12.07,25.11-6.22,8.19-13.15,13.4-17.99,16.49,2.5-.46,17.01-2.86,30.48,6.85,13.94,10.06,15.96,25.32,16.24,27.78,1.52,13.16,2.29,33.34-3.42,56.84-3.45,14.23-8.6,26.89-10.26,26.49-4.02-.96,19.97-66.04-6.41-91.45-8.59-8.27-20.34-10.23-29.19-10.54.89,25.07-.28,57.07-7.56,93.44-2.12,10.6-5.43,27.13-7.26,26.92-2.14-.25-2.41-23.39,5.25-120.37-6.3,3.23-10.05,4.18-11.23,2.85-1.65-1.85,1.67-8.12,9.95-18.82-1.28-36.62-2.56-73.25-3.83-109.87.87-1.6,2.86-4.76,6.7-7.2,4.73-3,9.39-3.08,11.19-3.02-2.13,37.05-4.26,74.1-6.39,111.15Z"/>
  <path class="cls-1" d="M474.81,347.55c-7.09,1.56-15.87,4.23-25.32,8.93-5.81,2.89-10.78,6-14.93,8.96-5.59-5.89-11.68-13.98-9.43-20.5,4.19-12.13,34.43-10.48,83.33-10.68,78.26-.33,122.04-5.07,122.21-2.43.1,1.52-14.48,3.6-36.32,6.71-40.87,5.81-75.21,8.63-100.38,10.1,1.23,56.07-3.77,94.91-8.33,119.19-2.57,13.69-4.23,18.66-5.39,18.57-2.84-.23-1.88-30.84-2.99-77.35-.61-25.71-1.64-46.93-2.46-61.49Z"/>
  <path class="cls-1" d="M561.88,283.83c1.3,1-.65,4.22-3.85,15.38,0,0-.12.42-3.22,12.75-3.58,14.25-1.21,37.47,2.79,71.01,1.02,8.53,2.32,19.19,4.92,33.24,4.5,24.27,7.84,31.38,14.19,35.96,1.16.84,10.17,7.15,18.5,3.87,6.07-2.39,9.13-8.83,10.5-11.72,2.32-4.89,2.76-9.2,2.89-10.63,1.06-11.86,2.84-73.53-4.93-108.98-.32-1.47-1.42-6.34.36-11.81,1.85-5.72,6.74-11.77,9.55-11.13,5.08,1.16,2.12,23.93,1.71,58.97-.27,23.1,1.03,55.89,8.35,96.04,2.34,10.86,4.68,21.72,7.03,32.58l-21.08-33.22c-1.75,2.83-7.25,10.91-16.95,13.15-14.81,3.41-27.23-9.57-30.33-13.14-4.9-5.62-8.07-12.46-11.95-45.04-2.86-24.01-1.35-21.34-3.87-43.53-2-17.6-1.8-35.4-3.85-52.99-.34-2.94-1.31-11.04,2.99-18.8,4.56-8.22,13.81-13.85,16.24-11.97Z"/>
  <path class="cls-1" d="M630.68,379.98c-2.07-3.58,3.47-10.72,14.53-24.79,31.14-39.62,26.21-33.11,27.71-35.08,18.38-24.13,21.39-33.93,29.72-33.7,9.72.27,16.64,13.92,16.93,14.51,4.1,8.33,3.25,17.3,2.14,17.52-1.05.21-1.62-7.28-7.69-12.82-3.59-3.27-7.8-4.68-11.15-5.34-15.97,21.93-31.94,43.86-47.91,65.8,24.85-8.84,38.33-7.99,44.53-1.48,15.27,16.03-8.07,73.42-47.01,108.12-30.56,27.23-63.93,34.43-108.85,44.11-68.34,14.73-126.44,10.81-126.5,9.6-.03-.66,16.8-1.09,53.27-5.92,19.33-2.56,38.61-5.16,63.12-10.42,25.73-5.52,44.13-9.57,67.25-19.42,18.94-8.06,29.32-12.47,41.45-22.65,25.58-21.47,34.07-47.54,39.74-64.95,2.44-7.48,9.03-27.74,2.99-31.62-4.69-3.01-12.56,6.67-31.62,10.26-4.46.84-19.53,3.68-22.65-1.71Z"/>
  <path class="cls-1" d="M310.09,303.81c9.41,4.82,12.97,15.42,14.54,20.66,20.68,68.87,6.76,118.81,6.76,118.81-3.04,10.9-8.49,26.84-18.68,44.97,13.47-9.1,25.75-14.24,34.36-17.21,12.98-4.47,26.79-9.05,44.09-6.46,13.59,2.03,26.47,8.2,25.95,10.59-.79,3.65-34.47-6.4-61.95,4.99-10.14,4.2-17.62,7.9-17.62,7.9-6.26,3.1-12.17,6.33-21.15,10.41-12.86,5.84-15.02,5.68-16.2,4.72-3.2-2.6-.41-11.74,1.69-15.94,0,0,12.7-31.78,20.69-60.75,5.53-20.06,3.98-36.72,3.06-46.72-1.7-18.34-3.93-42.33-19.17-62.43-3.77-4.97-10.26-12.24-8.3-14.96,1.53-2.12,7.68-.77,11.94,1.41Z"/>
  <path class="cls-1" d="M391.54,454.45c-1.63.19-3.67.25-5.96-.13-6.2-1.04-10.3-4.63-12.05-6.38-2.67-2.67-4.43-5.5-5.67-8.21-14.34-31.29-4.87-59.16-4.87-59.16,2.58-7.59,7.83-23.06,17.51-24.08,7.03-.74,13.06,6.49,16.93,11.24,25.05,30.79,10.75,75.11,5.4,80.27-3.18,3.07-6.91,4.85-6.91,4.85-1.79.86-3.36,1.34-4.37,1.61.08.78.16,1.56.25,2.34,2.96-.4,8.76-1.65,13.46-6.28,2.33-2.3,4.35-5.4,6.55-13.25,3.14-11.18,3.44-20.48,3.49-24.67.11-7.94.23-17.53-2.53-29.77-3.58-15.87-8.02-35.68-23.28-41.54-9-3.46-17.45-.44-18.62,0-17.21,6.44-21.19,29.78-23.2,41.61-1.25,7.31-2.69,21.88,2.83,38.16,2.88,8.51,6.65,14.5,9.12,17.95,4.54,6.33,9.78,13.65,19.28,16.69,5.24,1.68,9.95,1.47,12.89,1.09-.08-.78-.16-1.56-.25-2.34Z"/>
</svg>