<?xml version="1.0" encoding="UTF-8"?>
<svg id="_Слой_2" data-name="Слой 2" xmlns="http://www.w3.org/2000/svg" viewBox="0 0 32 32">
  <defs>
    <style>
      .cls-1 {
        fill: #e52823;
      }
    </style>
  </defs>
  <path class="cls-1" d="M.78,4.27c.62,2.52.95,4.59,1.12,5.97.06.49.17,1.39.82,7.96.15,1.54.27,2.74.37,2.74.13,0,.16-2.11.16-2.61.01-1.09.02-2.85-.2-5.25-.13-1.41-.36-3.15-.75-5.13l2.54-1.28c-.4.74-.81,1.48-1.21,2.23l-.57,1.1c.38-.32.89-.7,1.54-1.04.65-.34,1.24-.55,1.72-.68.05,1.22-.08,2.22-.22,2.93-.36,1.81-1.06,3.09-1.47,3.84-.53.96-.86,1.32-.84,1.34.05.03,2.86-2.59,3.28-6.13.13-1.11,0-2.06-.15-2.74-.81.31-1.63.61-2.44.92l1.42-2.17s.29-.36.18-.55c-.07-.14-.29-.15-.37-.15-.72-.04-2.91,1.36-3.43,1.7-.11-.72-.22-1.45-.33-2.17-.05-.12-.2-.41-.54-.62-.25-.15-.49-.19-.62-.2Z"/>
  <path class="cls-1" d="M7.19,5.51c.53.33.69.97.76,1.29.9,4.18-.15,7.07-.15,7.07-.23.63-.62,1.55-1.31,2.58.83-.48,1.58-.72,2.1-.86.78-.2,1.62-.41,2.62-.18.79.18,1.52.6,1.48.75-.07.24-2.21-.82-4.07.01-.55.25-1.12.48-1.67.73-.73.33-1.11.51-1.26.37-.17-.16.03-.64.17-.94,0,0,.89-1.82,1.5-3.5.42-1.16.4-2.16.4-2.75-.01-1.1-.03-2.53-.84-3.79-.2-.31-.55-.77-.42-.93.1-.12.46,0,.7.14Z"/>
  <path class="cls-1" d="M9.93,15.34c-.12,0-.34-2.14-.35-4.21,0,0-.02-1.82.48-4.83,0,0,.12-.72.62-1.72.34-.68.5-.75.6-.74.17.02.28.29.44.85.38,1.34.4,1.94.4,1.94.05,1.47.13,3.53.35,5.09.05.33.36,1.47.99,3.77.42,1.52.6,2.12,1.07,2.25.76.22,1.7-.98,1.88-1.22-.01.06-.27,1.25-1.25,1.54-.08.02-.57.16-1.07-.06-.48-.21-.78-.67-1.38-2.91-.39-1.45-.61-2.26-.76-3.51-.12-.95-.15-1.76-.16-2.37-.09-2.18-.33-2.71-.54-2.74-.32-.04-.84,1.06-.93,2.09-.03.41,0,.75.05,1,.14-.11.31-.24.51-.39.85-.63,1.9-1.28,1.95-1.21.04.05-.53.59-2.7,2.32,0,.89,0,2.09-.07,3.52-.05.99-.08,1.52-.14,1.52Z"/>
  <path class="cls-1" d="M15.9,8.79c.06.04.81-.76,1.26-1.83.44-1.04.46-1.99.43-2.56-.68-.01-1.6.06-2.63.4-.47.16-.88.34-1.22.52-.27.78-.53,1.79-.63,2.98-.1,1.32.04,2.3.2,3.33.17,1.14.38,1.76.79,2.99.3.89.52,1.38,1,1.57.55.22,1.1-.07,1.12-.09.44-.24.63-.7.84-1.52.44-1.72.54-3.47.42-3.48-.04,0-.21.67-.55,2.03-.38,1.52-.51,2.11-.95,2.25-.33.1-.66-.1-.75-.15-.41-.25-.56-.7-.93-2.4-.11-.51-.2-.95-.26-1.29-.13-.81-.21-1.91-.07-3.18.11-.99.33-1.83.56-2.5.23-.15.53-.32.92-.46.54-.19,1.02-.23,1.36-.24-.08.56-.15,1.12-.23,1.68-.06.25-.15.62-.31,1.06-.21.59-.39.87-.36.89Z"/>
  <path class="cls-1" d="M18.97,9.8c.36-.52.87-1.31,1.34-2.34.81-1.77,1.08-3.29,1.19-3.26.09.02-.08,1.12-.16,1.61-.21,1.38-.45,2.07-.53,2.3-.3.85-.54,1.18-.62,1.29-.32.42-.68.69-.93.85.13-.02.88-.15,1.57.35.72.52.82,1.31.84,1.43.08.68.12,1.72-.18,2.93-.18.73-.44,1.39-.53,1.37-.21-.05,1.03-3.41-.33-4.72-.44-.43-1.05-.53-1.51-.54.05,1.29-.01,2.94-.39,4.82-.11.55-.28,1.4-.37,1.39-.11-.01-.12-1.21.27-6.21-.33.17-.52.22-.58.15-.09-.1.09-.42.51-.97-.07-1.89-.13-3.78-.2-5.67.04-.08.15-.25.35-.37.24-.15.48-.16.58-.16-.11,1.91-.22,3.82-.33,5.73Z"/>
  <path class="cls-1" d="M18.84,18.86c-.37.08-.82.22-1.31.46-.3.15-.56.31-.77.46-.29-.3-.6-.72-.49-1.06.22-.63,1.78-.54,4.3-.55,4.04-.02,6.29-.26,6.3-.13,0,.08-.75.19-1.87.35-2.11.3-3.88.45-5.18.52.06,2.89-.19,4.89-.43,6.15-.13.71-.22.96-.28.96-.15-.01-.1-1.59-.15-3.99-.03-1.33-.08-2.42-.13-3.17Z"/>
  <path class="cls-1" d="M23.33,15.58c.07.05-.03.22-.2.79,0,0,0,.02-.17.66-.18.73-.06,1.93.14,3.66.05.44.12.99.25,1.71.23,1.25.4,1.62.73,1.85.06.04.52.37.95.2.31-.12.47-.46.54-.6.12-.25.14-.47.15-.55.05-.61.15-3.79-.25-5.62-.02-.08-.07-.33.02-.61.1-.29.35-.61.49-.57.26.06.11,1.23.09,3.04-.01,1.19.05,2.88.43,4.95.12.56.24,1.12.36,1.68l-1.09-1.71c-.09.15-.37.56-.87.68-.76.18-1.4-.49-1.56-.68-.25-.29-.42-.64-.62-2.32-.15-1.24-.07-1.1-.2-2.24-.1-.91-.09-1.83-.2-2.73-.02-.15-.07-.57.15-.97.24-.42.71-.71.84-.62Z"/>
  <path class="cls-1" d="M26.88,20.54c-.11-.18.18-.55.75-1.28,1.61-2.04,1.35-1.71,1.43-1.81.95-1.24,1.1-1.75,1.53-1.74.5.01.86.72.87.75.21.43.17.89.11.9-.05.01-.08-.38-.4-.66-.18-.17-.4-.24-.57-.28-.82,1.13-1.65,2.26-2.47,3.39,1.28-.46,1.98-.41,2.3-.08.79.83-.42,3.79-2.42,5.58-1.58,1.4-3.3,1.78-5.61,2.27-3.52.76-6.52.56-6.52.49,0-.03.87-.06,2.75-.31,1-.13,1.99-.27,3.26-.54,1.33-.28,2.28-.49,3.47-1,.98-.42,1.51-.64,2.14-1.17,1.32-1.11,1.76-2.45,2.05-3.35.13-.39.47-1.43.15-1.63-.24-.16-.65.34-1.63.53-.23.04-1.01.19-1.17-.09Z"/>
  <path class="cls-1" d="M10.34,16.61c.49.25.67.8.75,1.07,1.07,3.55.35,6.13.35,6.13-.16.56-.44,1.38-.96,2.32.69-.47,1.33-.73,1.77-.89.67-.23,1.38-.47,2.27-.33.7.1,1.36.42,1.34.55-.04.19-1.78-.33-3.2.26-.52.22-.91.41-.91.41-.32.16-.63.33-1.09.54-.66.3-.77.29-.84.24-.16-.13-.02-.61.09-.82,0,0,.66-1.64,1.07-3.13.29-1.03.21-1.89.16-2.41-.09-.95-.2-2.18-.99-3.22-.19-.26-.53-.63-.43-.77.08-.11.4-.04.62.07Z"/>
  <path class="cls-1" d="M14.54,24.38c-.08,0-.19.01-.31,0-.32-.05-.53-.24-.62-.33-.14-.14-.23-.28-.29-.42-.74-1.61-.25-3.05-.25-3.05.13-.39.4-1.19.9-1.24.36-.04.67.33.87.58,1.29,1.59.55,3.87.28,4.14-.16.16-.36.25-.36.25-.09.04-.17.07-.23.08,0,.04,0,.08.01.12.15-.02.45-.08.69-.32.12-.12.22-.28.34-.68.16-.58.18-1.06.18-1.27,0-.41.01-.9-.13-1.54-.18-.82-.41-1.84-1.2-2.14-.46-.18-.9-.02-.96,0-.89.33-1.09,1.54-1.2,2.15-.06.38-.14,1.13.15,1.97.15.44.34.75.47.93.23.33.5.7.99.86.27.09.51.08.66.06,0-.04,0-.08-.01-.12Z"/>
</svg>